<svg width="141" height="157" fill="none" xmlns="http://www.w3.org/2000/svg"><path fill-rule="evenodd" clip-rule="evenodd" d="M141 39.671L70.751.561.502 39.671v78.219L70.752 157 141 117.89V39.671zM62.844 55.5h-9.188v31.063c0 4.958-1.333 7.437-4 7.437-2.646 0-3.968-2.146-3.968-6.438h-9.22c0 4.417 1.157 7.865 3.47 10.344 2.312 2.479 5.552 3.719 9.718 3.719 3.875 0 7.042-1.333 9.5-4 2.459-2.667 3.688-6.208 3.688-10.625V55.5zm25 29.375c.958.938 1.437 2.333 1.437 4.188 0 3.395-1.604 5.093-4.812 5.093-2.313 0-3.98-.594-5-1.781-1.021-1.188-1.531-3.094-1.531-5.719h-9.22c0 3.063.678 5.719 2.032 7.969 1.375 2.25 3.27 3.98 5.688 5.188 2.416 1.208 5.093 1.812 8.03 1.812 4.334 0 7.761-1.115 10.282-3.344 2.52-2.229 3.781-5.323 3.781-9.281 0-3.604-1.01-6.573-3.031-8.906-2-2.334-5.219-4.302-9.656-5.906-2.542-1.084-4.313-2.126-5.313-3.126-1-1.02-1.5-2.156-1.5-3.406 0-1.604.448-2.875 1.344-3.812.896-.959 2.146-1.438 3.75-1.438 1.708 0 3.01.563 3.906 1.688.917 1.104 1.375 2.719 1.375 4.844h9.156c0-2.73-.593-5.167-1.78-7.313-1.167-2.146-2.844-3.802-5.032-4.969-2.188-1.187-4.677-1.781-7.469-1.781-4.187 0-7.646 1.167-10.375 3.5-2.708 2.313-4.062 5.385-4.062 9.219 0 3.166 1 5.916 3 8.25 2 2.312 5.281 4.333 9.844 6.062 2.5 1.021 4.218 2.01 5.156 2.969z" fill="#181621"/></svg>