<svg width="141" height="860" fill="none" xmlns="http://www.w3.org/2000/svg"><path fill-rule="evenodd" clip-rule="evenodd" d="M140.498 39.11L70.248 0 0 39.11v78.219l70.249 39.11 70.249-39.11v-78.22zM22.406 80.9v5.168H39.88c2.789 0 4.184.75 4.184 2.25 0 1.489-1.208 2.233-3.622 2.233v5.185c2.485 0 4.424-.65 5.819-1.95 1.394-1.302 2.092-3.124 2.092-5.468 0-2.18-.75-3.96-2.25-5.343S42.609 80.9 40.125 80.9H22.406zM38.93 66.838c.527-.54 1.312-.809 2.355-.809 1.91 0 2.865.903 2.865 2.707 0 1.301-.334 2.239-1.002 2.813-.668.574-1.74.861-3.216.861v5.186c1.722 0 3.216-.381 4.482-1.143 1.266-.773 2.238-1.84 2.918-3.2.68-1.359 1.02-2.864 1.02-4.517 0-2.437-.627-4.365-1.881-5.783-1.254-1.418-2.994-2.127-5.221-2.127-2.027 0-3.697.569-5.01 1.705-1.312 1.125-2.42 2.936-3.322 5.432-.61 1.43-1.195 2.426-1.758 2.988-.574.563-1.213.844-1.916.844-.902 0-1.617-.252-2.144-.756-.54-.504-.809-1.207-.809-2.11 0-.96.316-1.693.95-2.197.62-.515 1.529-.773 2.724-.773v-5.15c-1.535 0-2.906.334-4.113 1.002a6.78 6.78 0 0 0-2.795 2.83c-.668 1.23-1.002 2.63-1.002 4.2 0 2.356.656 4.302 1.968 5.837 1.301 1.523 3.03 2.285 5.186 2.285 1.781 0 3.328-.563 4.64-1.688 1.301-1.125 2.438-2.97 3.41-5.537.575-1.406 1.132-2.373 1.67-2.9zM140.498 253.11L70.248 214 0 253.11v78.219l70.249 39.11 70.249-39.11V253.11zm-94.81 68.281v-2.282L54 315.688v-4.938h-.219l-9.312 3.984c-1.209-2.198-3.323-3.296-6.344-3.296-2.198 0-3.89.63-5.078 1.89-1.198 1.25-1.797 3.026-1.797 5.328v7.328H54v-4.593h-8.313zm-3.829-2.61v2.61h-6.78v-2.688c0-1.781 1.14-2.672 3.421-2.672 1.02 0 1.839.229 2.453.688.604.458.906 1.146.906 2.062zm10.422-11.797c1.354-1.27 2.032-3.041 2.032-5.312 0-1.208-.23-2.328-.688-3.36-.469-1.031-1.078-1.817-1.828-2.359l-2.672 1.735c1.01.989 1.516 2.223 1.516 3.703 0 1.02-.287 1.776-.86 2.265-.583.49-1.5.766-2.75.828v-8.796H44.86c-2.666.02-4.677.567-6.03 1.64-1.365 1.073-2.048 2.672-2.048 4.797 0 2.177.724 3.849 2.172 5.016 1.448 1.166 3.505 1.75 6.172 1.75h1.344c2.52 0 4.458-.636 5.812-1.907zm-8.343-6.953v4.422c-1.22-.062-2.105-.265-2.657-.609-.552-.354-.828-.917-.828-1.688 0-.771.26-1.312.781-1.625.521-.312 1.287-.479 2.297-.5h.407zm8.75-14.5c.614-.125 1.052-.25 1.312-.375v-4.453h-.266c-.823.396-1.963.604-3.422.625H42.36c-1.791 0-3.166.511-4.125 1.531-.968 1.011-1.453 2.443-1.453 4.297 0 1.792.51 3.276 1.532 4.453 1.01 1.167 2.296 1.75 3.859 1.75v-4.421c-1.292 0-1.938-.553-1.938-1.657 0-.5.157-.88.47-1.14.312-.261.848-.391 1.608-.391h1.36v1.344c.02 2.125.516 3.755 1.484 4.89.969 1.125 2.339 1.688 4.11 1.688 1.49 0 2.703-.464 3.64-1.391.938-.937 1.407-2.114 1.407-3.531 0-1.354-.542-2.427-1.626-3.219zm-2.141.985c.198.343.297.76.297 1.25 0 .979-.625 1.468-1.875 1.468-.802 0-1.443-.213-1.922-.64-.48-.438-.719-1.032-.719-1.782v-1.062h3.516c.27.167.505.422.703.766zm-2.406-16.454c1.666.021 2.5.672 2.5 1.954 0 .573-.125 1.015-.375 1.328-.26.312-.662.536-1.203.672-.553.135-1.516.203-2.891.203h-1.719c-1.573-.021-2.63-.198-3.172-.531-.552-.334-.828-.886-.828-1.657 0-.698.255-1.198.766-1.5.51-.302 1.24-.458 2.187-.469v-4.156c-2.114.021-3.745.568-4.89 1.641-1.157 1.073-1.735 2.542-1.735 4.406 0 2.208.698 3.88 2.094 5.016 1.396 1.125 3.422 1.687 6.078 1.687h1.344c2.635-.021 4.63-.604 5.984-1.75s2.032-2.807 2.032-4.984c0-1.761-.568-3.198-1.704-4.313-1.135-1.114-2.625-1.682-4.468-1.703v4.156zm-11.047-11.796h-4.157v4.422h4.157v1.953h3.328v-1.953h8.984c3.271-.032 4.907-1.474 4.907-4.329 0-.875-.141-1.687-.422-2.437l-3.438-.031c.073.27.11.619.11 1.047 0 .52-.126.874-.376 1.062-.25.177-.708.266-1.374.266h-8.391V256h-3.328v2.266zM140.498 467.11L70.248 428 0 467.11v78.219l70.249 39.11 70.249-39.11V467.11zm-94.81 72.031v-2.282L54 533.438V528.5h-.219l-9.312 3.984c-1.209-2.198-3.323-3.296-6.344-3.296-2.198 0-3.89.63-5.078 1.89-1.198 1.25-1.797 3.026-1.797 5.328v7.328H54v-4.593h-8.313zm-3.829-2.61v2.61h-6.78v-2.688c0-1.781 1.14-2.672 3.421-2.672 1.02 0 1.839.229 2.453.688.604.458.906 1.146.906 2.062zm10.422-11.797c1.354-1.27 2.032-3.041 2.032-5.312 0-1.208-.23-2.328-.688-3.36-.469-1.031-1.078-1.817-1.828-2.359l-2.672 1.735c1.01.989 1.516 2.223 1.516 3.703 0 1.02-.287 1.776-.86 2.265-.583.49-1.5.766-2.75.828v-8.796H44.86c-2.666.02-4.677.567-6.03 1.64-1.365 1.073-2.048 2.672-2.048 4.797 0 2.177.724 3.849 2.172 5.016 1.448 1.166 3.505 1.75 6.172 1.75h1.344c2.52 0 4.458-.636 5.812-1.907zm-8.343-6.953v4.422c-1.22-.062-2.105-.265-2.657-.609-.552-.354-.828-.917-.828-1.688 0-.771.26-1.312.781-1.625.521-.312 1.287-.479 2.297-.5h.407zm-5.11-7.656c1.365.937 3.432 1.406 6.203 1.406h1.282c2.624-.021 4.614-.495 5.968-1.422 1.354-.937 2.032-2.291 2.032-4.062 0-1.427-.678-2.594-2.032-3.5l1.719-.203v-4.016H30v4.453h8.469c-1.125.865-1.688 1.948-1.688 3.25 0 1.792.683 3.157 2.047 4.094zm10.813-3.563c-.667.355-1.834.532-3.5.532h-1.172c-1.677 0-2.844-.188-3.5-.563-.657-.375-.985-.969-.985-1.781 0-.875.417-1.531 1.25-1.969h7.72c.78.448 1.171 1.11 1.171 1.985 0 .843-.328 1.442-.984 1.796zm4.672-16.124c0-1.542-.62-2.771-1.86-3.688l1.547-.125v-4.156H37.094v4.453h12.218c.876.448 1.313 1.177 1.313 2.187 0 1.073-.823 1.62-2.469 1.641H37.094v4.422h10.953c2.042 0 3.599-.401 4.672-1.203 1.062-.802 1.593-1.979 1.593-3.531zm-17.22-18.75l5.016 1.968-5.015 1.891v4.703l8.265-3.828 8.641 4v-4.719l-5.297-2.062L54 471.562v-4.703l-8.64 4L37.093 467v4.688zM140.498 681.11L70.248 642 0 681.11v78.219l70.249 39.11 70.249-39.11V681.11zM45.93 743.66c.527-.539 1.312-.808 2.355-.808 1.91 0 2.865.902 2.865 2.707 0 1.3-.334 2.238-1.002 2.812-.668.574-1.74.861-3.216.861v5.186c1.722 0 3.216-.381 4.482-1.143 1.266-.773 2.238-1.839 2.918-3.199.68-1.359 1.02-2.865 1.02-4.517 0-2.438-.627-4.366-1.881-5.784-1.254-1.418-2.994-2.127-5.221-2.127-2.027 0-3.697.569-5.01 1.706-1.312 1.125-2.42 2.935-3.322 5.431-.61 1.43-1.195 2.426-1.758 2.988-.574.563-1.213.844-1.916.844-.902 0-1.617-.252-2.144-.756-.54-.504-.809-1.207-.809-2.109 0-.961.316-1.693.95-2.197.62-.516 1.529-.774 2.724-.774v-5.15c-1.535 0-2.906.334-4.113 1.002a6.775 6.775 0 0 0-2.795 2.83c-.668 1.23-1.002 2.631-1.002 4.201 0 2.356.656 4.301 1.968 5.836 1.301 1.523 3.03 2.285 5.186 2.285 1.781 0 3.328-.562 4.64-1.687 1.301-1.125 2.438-2.971 3.41-5.537.575-1.407 1.132-2.373 1.67-2.901zm7.593-17.806c.692-.141 1.184-.282 1.477-.422v-5.01h-.299c-.926.445-2.209.68-3.85.703h-8.947c-2.015 0-3.562.574-4.64 1.723-1.09 1.136-1.635 2.748-1.635 4.834 0 2.015.574 3.685 1.723 5.009 1.136 1.313 2.584 1.969 4.341 1.969v-4.974c-1.453 0-2.18-.622-2.18-1.864 0-.562.176-.99.528-1.283.352-.293.955-.439 1.81-.439h1.53v1.511c.023 2.391.58 4.225 1.67 5.502 1.09 1.266 2.63 1.899 4.623 1.899 1.676 0 3.04-.522 4.096-1.565 1.054-1.054 1.582-2.379 1.582-3.972 0-1.524-.61-2.731-1.829-3.621zm-2.408 1.107c.223.387.334.855.334 1.406 0 1.102-.703 1.653-2.11 1.653-.901 0-1.622-.241-2.161-.721-.54-.492-.809-1.16-.809-2.004V726.1h3.955c.305.187.569.474.791.861zm-13.183-10.529c1.535 1.125 3.861 1.687 6.978 1.687h1.406c2.871-.023 5.098-.586 6.68-1.687 1.57-1.114 2.356-2.684 2.356-4.711 0-1.524-.621-2.76-1.864-3.709h1.635c1.184.011 2.04.263 2.566.756.54.48.809 1.277.809 2.39 0 .668-.158 1.377-.475 2.127-.304.75-.703 1.36-1.195 1.828l3.445 1.67c.645-.562 1.172-1.418 1.582-2.566.422-1.149.633-2.244.633-3.287 0-2.543-.644-4.494-1.933-5.854-1.278-1.359-3.13-2.039-5.555-2.039H35.98v4.483l1.688.193c-1.36.937-2.04 2.267-2.04 3.99 0 2.027.769 3.604 2.304 4.729zm12.076-3.973c-.809.457-2.092.686-3.85.686H44.91c-1.793 0-3.094-.235-3.902-.704-.809-.48-1.213-1.212-1.213-2.197 0-.973.404-1.717 1.213-2.232h9.088c.738.492 1.107 1.248 1.107 2.267 0 .996-.398 1.723-1.195 2.18zm3.515-21.656c.692-.141 1.184-.282 1.477-.422v-5.01h-.299c-.926.445-2.209.68-3.85.703h-8.947c-2.015 0-3.562.574-4.64 1.723-1.09 1.137-1.635 2.748-1.635 4.834 0 2.015.574 3.685 1.723 5.01 1.136 1.312 2.584 1.968 4.341 1.968v-4.974c-1.453 0-2.18-.621-2.18-1.864 0-.562.176-.99.528-1.283.352-.293.955-.439 1.81-.439h1.53v1.512c.023 2.39.58 4.224 1.67 5.501 1.09 1.266 2.63 1.899 4.623 1.899 1.676 0 3.04-.522 4.096-1.565 1.054-1.054 1.582-2.378 1.582-3.972 0-1.524-.61-2.731-1.829-3.621zm-2.408 1.107c.223.387.334.856.334 1.406 0 1.102-.703 1.653-2.11 1.653-.901 0-1.622-.24-2.161-.721-.54-.492-.809-1.16-.809-2.004v-1.195h3.955c.305.187.569.474.791.861z" fill="#181621"/></svg>