<svg width="141" height="799" fill="none" xmlns="http://www.w3.org/2000/svg"><path fill-rule="evenodd" clip-rule="evenodd" d="M140.498 39.11L70.248 0 0 39.11v78.219l70.249 39.11 70.249-39.11v-78.22zM17.875 81.867v6.89h23.297c3.719 0 5.578 1 5.578 3 0 1.985-1.61 2.977-4.828 2.977v6.914c3.312 0 5.898-.867 7.758-2.601 1.86-1.734 2.789-4.164 2.789-7.29 0-2.905-1-5.28-3-7.124-2-1.844-4.657-2.766-7.969-2.766H17.875zm22.031-18.75c.703-.719 1.75-1.078 3.14-1.078 2.548 0 3.821 1.203 3.821 3.61 0 1.734-.445 2.984-1.336 3.75-.89.765-2.32 1.148-4.289 1.148v6.914c2.297 0 4.29-.508 5.977-1.523 1.687-1.032 2.984-2.454 3.89-4.266.907-1.813 1.36-3.82 1.36-6.024 0-3.25-.836-5.82-2.508-7.71-1.672-1.891-3.992-2.836-6.961-2.836-2.703 0-4.93.757-6.68 2.273-1.75 1.5-3.226 3.914-4.43 7.242-.812 1.906-1.593 3.235-2.343 3.985-.766.75-1.617 1.125-2.555 1.125-1.203 0-2.156-.336-2.86-1.008-.718-.672-1.077-1.61-1.077-2.813 0-1.281.422-2.258 1.265-2.93.828-.687 2.04-1.03 3.633-1.03v-6.868c-2.047 0-3.875.445-5.484 1.336-1.61.875-2.852 2.133-3.727 3.773-.89 1.641-1.336 3.508-1.336 5.602 0 3.14.875 5.734 2.625 7.781 1.735 2.032 4.04 3.047 6.914 3.047 2.375 0 4.438-.75 6.188-2.25 1.734-1.5 3.25-3.96 4.547-7.383.765-1.875 1.508-3.164 2.226-3.867zM140.498 253.11L70.248 214 0 253.11v78.219l70.249 39.11 70.249-39.11V253.11zm-94.85 72.517v-2.566l9.352-3.85v-5.555h-.246l-10.477 4.483c-1.359-2.473-3.738-3.709-7.136-3.709-2.473 0-4.377.709-5.713 2.127-1.348 1.406-2.022 3.404-2.022 5.994v8.244H55v-5.168h-9.352zm-4.306-2.936v2.936h-7.63v-3.023c0-2.004 1.284-3.006 3.85-3.006 1.149 0 2.069.257 2.76.773.68.516 1.02 1.289 1.02 2.32zm11.724-13.271c1.524-1.43 2.286-3.422 2.286-5.977 0-1.359-.258-2.619-.774-3.779-.527-1.16-1.213-2.045-2.056-2.654l-3.006 1.951c1.136 1.113 1.705 2.502 1.705 4.166 0 1.148-.323 1.998-.967 2.549-.656.551-1.688.861-3.094.931v-9.896h-2.443c-3 .023-5.262.639-6.785 1.846-1.535 1.207-2.303 3.005-2.303 5.396 0 2.449.814 4.33 2.443 5.643 1.63 1.312 3.944 1.968 6.944 1.968h1.511c2.836 0 5.016-.714 6.54-2.144zm-9.386-7.822v4.974c-1.371-.07-2.367-.299-2.989-.685-.62-.399-.931-1.032-.931-1.899s.293-1.476.879-1.828c.586-.351 1.447-.539 2.584-.562h.457zm9.843-16.313c.692-.14 1.184-.281 1.477-.422v-5.009h-.299c-.926.445-2.209.679-3.85.703h-8.947c-2.015 0-3.562.574-4.64 1.722-1.09 1.137-1.635 2.748-1.635 4.834 0 2.016.574 3.686 1.723 5.01 1.136 1.313 2.584 1.969 4.341 1.969v-4.975c-1.453 0-2.18-.621-2.18-1.863 0-.563.176-.99.528-1.283.352-.293.955-.44 1.81-.44h1.53v1.512c.023 2.391.58 4.225 1.67 5.502 1.09 1.266 2.63 1.898 4.623 1.898 1.676 0 3.04-.521 4.096-1.564 1.054-1.055 1.582-2.379 1.582-3.973 0-1.523-.61-2.73-1.829-3.621zm-2.408 1.108c.223.386.334.855.334 1.406 0 1.101-.703 1.652-2.11 1.652-.901 0-1.622-.24-2.161-.721-.54-.492-.809-1.16-.809-2.003v-1.196h3.955c.305.188.569.475.791.862zm-2.707-18.51c1.875.023 2.813.756 2.813 2.197 0 .645-.14 1.143-.422 1.494-.293.352-.744.604-1.354.756-.62.152-1.705.229-3.252.229H44.26c-1.77-.024-2.96-.223-3.569-.598-.62-.375-.931-.996-.931-1.863 0-.786.287-1.348.861-1.688.574-.34 1.395-.515 2.461-.527v-4.676c-2.379.023-4.213.639-5.502 1.846-1.3 1.207-1.951 2.859-1.951 4.957 0 2.484.785 4.365 2.355 5.642 1.57 1.266 3.85 1.899 6.838 1.899h1.512c2.965-.024 5.209-.68 6.732-1.969 1.524-1.289 2.286-3.158 2.286-5.607 0-1.981-.64-3.598-1.916-4.852-1.278-1.254-2.954-1.893-5.028-1.916v4.676zM35.98 254.611h-4.675v4.975h4.675v2.197h3.745v-2.197h10.107c3.68-.035 5.52-1.658 5.52-4.869a7.74 7.74 0 0 0-.475-2.742l-3.867-.036c.082.305.123.698.123 1.178 0 .586-.14.985-.422 1.195-.281.2-.797.299-1.547.299h-9.44v-2.549h-3.743v2.549zM140.498 467.11L70.248 428 0 467.11v78.219l70.249 39.11 70.249-39.11V467.11zm-94.85 76.173v-2.566l9.352-3.85v-5.555h-.246l-10.477 4.483c-1.359-2.473-3.738-3.709-7.136-3.709-2.473 0-4.377.709-5.713 2.127-1.348 1.406-2.022 3.404-2.022 5.994v8.244H55v-5.168h-9.352zm-4.306-2.935v2.935h-7.63v-3.023c0-2.004 1.284-3.006 3.85-3.006 1.149 0 2.069.258 2.76.773.68.516 1.02 1.289 1.02 2.321zm11.724-13.272c1.524-1.43 2.286-3.422 2.286-5.976 0-1.36-.258-2.62-.774-3.78-.527-1.16-1.213-2.045-2.056-2.654l-3.006 1.951c1.136 1.113 1.705 2.502 1.705 4.166 0 1.149-.323 1.998-.967 2.549-.656.551-1.688.861-3.094.932v-9.897h-2.443c-3 .024-5.262.639-6.785 1.846-1.535 1.207-2.303 3.006-2.303 5.396 0 2.45.814 4.33 2.443 5.643 1.63 1.312 3.944 1.969 6.944 1.969h1.511c2.836 0 5.016-.715 6.54-2.145zm-9.386-7.822v4.975c-1.371-.071-2.367-.299-2.989-.686-.62-.398-.931-1.031-.931-1.898 0-.868.293-1.477.879-1.829.586-.351 1.447-.539 2.584-.562h.457zm-5.748-8.613c1.535 1.054 3.861 1.582 6.978 1.582h1.442c2.953-.024 5.191-.557 6.714-1.6 1.524-1.055 2.286-2.578 2.286-4.57 0-1.606-.762-2.918-2.286-3.938l1.934-.228v-4.518H28v5.01h9.527c-1.265.973-1.898 2.191-1.898 3.656 0 2.016.768 3.551 2.303 4.606zm12.164-4.008c-.75.398-2.063.597-3.938.597H44.84c-1.887 0-3.2-.21-3.938-.632-.738-.422-1.107-1.09-1.107-2.004 0-.985.469-1.723 1.406-2.215h8.684c.879.504 1.318 1.248 1.318 2.232 0 .95-.369 1.623-1.107 2.022zm5.256-18.141c0-1.734-.698-3.117-2.092-4.148l1.74-.141v-4.676H35.98v5.01h13.747c.984.504 1.476 1.324 1.476 2.461 0 1.207-.926 1.822-2.777 1.846H35.98v4.974h12.323c2.297 0 4.049-.451 5.256-1.353 1.195-.903 1.793-2.227 1.793-3.973zM35.98 467.398l5.642 2.215-5.642 2.127v5.291l9.298-4.306 9.721 4.5v-5.309l-5.959-2.32L55 467.258v-5.291l-9.72 4.5-9.3-4.342v5.273zM140.498 681.11L70.248 642 0 681.11v78.219l70.249 39.11 70.249-39.11V681.11zM45.93 743.66c.527-.539 1.312-.808 2.355-.808 1.91 0 2.865.902 2.865 2.707 0 1.3-.334 2.238-1.002 2.812-.668.574-1.74.861-3.216.861v5.186c1.722 0 3.216-.381 4.482-1.143 1.266-.773 2.238-1.839 2.918-3.199.68-1.359 1.02-2.865 1.02-4.517 0-2.438-.627-4.366-1.881-5.784-1.254-1.418-2.994-2.127-5.221-2.127-2.027 0-3.697.569-5.01 1.706-1.312 1.125-2.42 2.935-3.322 5.431-.61 1.43-1.195 2.426-1.758 2.988-.574.563-1.213.844-1.916.844-.902 0-1.617-.252-2.144-.756-.54-.504-.809-1.207-.809-2.109 0-.961.316-1.693.95-2.197.62-.516 1.529-.774 2.724-.774v-5.15c-1.535 0-2.906.334-4.113 1.002a6.775 6.775 0 0 0-2.795 2.83c-.668 1.23-1.002 2.631-1.002 4.201 0 2.356.656 4.301 1.968 5.836 1.301 1.523 3.03 2.285 5.186 2.285 1.781 0 3.328-.562 4.64-1.687 1.301-1.125 2.438-2.971 3.41-5.537.575-1.407 1.132-2.373 1.67-2.901zm7.593-17.806c.692-.141 1.184-.282 1.477-.422v-5.01h-.299c-.926.445-2.209.68-3.85.703h-8.947c-2.015 0-3.562.574-4.64 1.723-1.09 1.136-1.635 2.748-1.635 4.834 0 2.015.574 3.685 1.723 5.009 1.136 1.313 2.584 1.969 4.341 1.969v-4.974c-1.453 0-2.18-.622-2.18-1.864 0-.562.176-.99.528-1.283.352-.293.955-.439 1.81-.439h1.53v1.511c.023 2.391.58 4.225 1.67 5.502 1.09 1.266 2.63 1.899 4.623 1.899 1.676 0 3.04-.522 4.096-1.565 1.054-1.054 1.582-2.379 1.582-3.972 0-1.524-.61-2.731-1.829-3.621zm-2.408 1.107c.223.387.334.855.334 1.406 0 1.102-.703 1.653-2.11 1.653-.901 0-1.622-.241-2.161-.721-.54-.492-.809-1.16-.809-2.004V726.1h3.955c.305.187.569.474.791.861zm-13.183-10.529c1.535 1.125 3.861 1.687 6.978 1.687h1.406c2.871-.023 5.098-.586 6.68-1.687 1.57-1.114 2.356-2.684 2.356-4.711 0-1.524-.621-2.76-1.864-3.709h1.635c1.184.011 2.04.263 2.566.756.54.48.809 1.277.809 2.39 0 .668-.158 1.377-.475 2.127-.304.75-.703 1.36-1.195 1.828l3.445 1.67c.645-.562 1.172-1.418 1.582-2.566.422-1.149.633-2.244.633-3.287 0-2.543-.644-4.494-1.933-5.854-1.278-1.359-3.13-2.039-5.555-2.039H35.98v4.483l1.688.193c-1.36.937-2.04 2.267-2.04 3.99 0 2.027.769 3.604 2.304 4.729zm12.076-3.973c-.809.457-2.092.686-3.85.686H44.91c-1.793 0-3.094-.235-3.902-.704-.809-.48-1.213-1.212-1.213-2.197 0-.973.404-1.717 1.213-2.232h9.088c.738.492 1.107 1.248 1.107 2.267 0 .996-.398 1.723-1.195 2.18zm3.515-21.656c.692-.141 1.184-.282 1.477-.422v-5.01h-.299c-.926.445-2.209.68-3.85.703h-8.947c-2.015 0-3.562.574-4.64 1.723-1.09 1.137-1.635 2.748-1.635 4.834 0 2.015.574 3.685 1.723 5.01 1.136 1.312 2.584 1.968 4.341 1.968v-4.974c-1.453 0-2.18-.621-2.18-1.864 0-.562.176-.99.528-1.283.352-.293.955-.439 1.81-.439h1.53v1.512c.023 2.39.58 4.224 1.67 5.501 1.09 1.266 2.63 1.899 4.623 1.899 1.676 0 3.04-.522 4.096-1.565 1.054-1.054 1.582-2.378 1.582-3.972 0-1.524-.61-2.731-1.829-3.621zm-2.408 1.107c.223.387.334.856.334 1.406 0 1.102-.703 1.653-2.11 1.653-.901 0-1.622-.24-2.161-.721-.54-.492-.809-1.16-.809-2.004v-1.195h3.955c.305.187.569.474.791.861z" fill="#181621"/></svg>